<?xml version="1.0" encoding="UTF-8"?>
<svg xmlns="http://www.w3.org/2000/svg" version="1.1" viewBox="0 0 32 32">
  <defs>
    <style>
      .cls-1 {
        fill: #fff;
      }

      .cls-2 {
        fill: #5b47e8;
      }
    </style>
  </defs>
  <!-- Generator: Adobe Illustrator 28.7.0, SVG Export Plug-In . SVG Version: 1.2.0 Build 136)  -->
  <g>
    <g id="Layer_1">
      <rect x="0" width="32" height="32" rx="5.01" ry="5.01"/>
      <g>
        <path class="cls-1" d="M2.58,20v-8.28h2.26v1.78l-.03,2.38.03,1.09v3.02h-2.26ZM4.29,18.61v-2.11c.16-.32.32-.62.47-.89.16-.27.33-.54.52-.82s.42-.59.69-.94l1.64-2.13h2.66l-3.46,4.26-.21-.07-2.32,2.7ZM7.79,20l-2-3.33,1.42-1.67,3.22,5h-2.65Z"/>
        <path class="cls-2" d="M12.88,20.28c-.67,0-1.24-.13-1.72-.4-.48-.26-.85-.63-1.11-1.11-.26-.47-.39-1.03-.39-1.67s.13-1.19.39-1.66c.26-.47.63-.84,1.11-1.11.48-.27,1.06-.4,1.72-.4s1.24.13,1.72.4c.48.26.85.63,1.1,1.11s.39,1.03.39,1.66-.13,1.19-.39,1.67-.63.84-1.1,1.11c-.48.27-1.05.4-1.72.4ZM12.88,18.6c.19,0,.35-.06.49-.17.14-.12.25-.29.33-.51.08-.22.11-.49.11-.81s-.04-.59-.11-.81c-.08-.22-.18-.39-.33-.5-.14-.11-.31-.17-.49-.17s-.36.06-.5.17-.25.28-.33.5c-.08.22-.11.49-.11.81s.04.59.11.81c.08.22.19.39.33.51s.31.17.5.17Z"/>
        <path class="cls-1" d="M18.81,20.22c-.46,0-.87-.12-1.24-.35-.37-.24-.67-.59-.89-1.06-.22-.47-.33-1.05-.33-1.75s.11-1.31.34-1.78.53-.81.9-1.04c.37-.23.77-.34,1.2-.34.3,0,.56.05.78.14.22.1.42.23.57.39.16.17.28.36.37.57h.03v-3.16h2.23v8.28h-2.21v-1h-.04c-.09.22-.21.41-.37.57-.16.16-.35.29-.57.38s-.48.14-.76.14ZM19.6,18.5c.2,0,.38-.06.53-.18.15-.12.26-.29.35-.5.08-.22.13-.47.13-.76s-.04-.56-.13-.77c-.08-.21-.2-.38-.35-.5s-.32-.17-.53-.17-.38.06-.52.17-.25.28-.33.5c-.08.21-.11.47-.11.77s.04.55.11.77c.08.22.19.38.33.5s.32.17.52.17Z"/>
        <path class="cls-1" d="M26.21,20.28c-.67,0-1.24-.13-1.72-.4-.48-.26-.85-.63-1.11-1.11s-.39-1.03-.39-1.67.13-1.19.39-1.66.63-.84,1.11-1.11c.48-.27,1.06-.4,1.72-.4s1.24.13,1.72.4c.48.26.85.63,1.1,1.11s.39,1.03.39,1.66-.13,1.19-.39,1.67-.62.84-1.1,1.11c-.48.27-1.05.4-1.72.4ZM26.21,18.59c.19,0,.35-.06.5-.17.14-.12.25-.29.32-.51s.11-.49.11-.81-.04-.59-.11-.81-.18-.39-.32-.5c-.14-.11-.31-.17-.5-.17s-.36.06-.5.17-.25.28-.33.5c-.08.22-.11.49-.11.81s.04.59.11.81c.08.22.18.39.33.51s.31.17.5.17Z"/>
        <rect class="cls-2" x="11.21" y="12.24" width="3.33" height="1.29"/>
      </g>
    </g>
  </g>
</svg>