<?xml version="1.0" encoding="UTF-8"?>
<svg xmlns="http://www.w3.org/2000/svg" version="1.1" viewBox="0 0 32 8">
  <defs>
    <style>
      .cls-1 {
        fill: #fff;
      }

      .cls-2 {
        fill: #5b47e8;
      }
    </style>
  </defs>
  <!-- Generator: Adobe Illustrator 28.7.0, SVG Export Plug-In . SVG Version: 1.2.0 Build 136)  -->
  <g>
    <g id="Layer_1">
      <g>
        <path class="cls-2" d="M5.19,7.43c-.34-.4-.9-.82-1.44-1.09-.55-.27-1.07-.42-1.67-.48-.12-.01-.21-.02-.22-.02,0,0,0-1.22,0-2.71V.43s.12.01.12.01c.66.07,1.4.32,1.96.67.48.3.98.77,1.3,1.21l.08.11v2.57c0,1.41,0,2.57-.01,2.57,0,0-.07-.06-.13-.14h0ZM5.74,4.99v-2.58l.15-.21c.2-.26.59-.66.86-.86.7-.52,1.46-.82,2.33-.91h.11s0,2.7,0,2.7v2.71h-.13c-1.22.13-2.27.63-3.09,1.48l-.23.24v-2.58h0ZM6.49,7.4c.48-.45,1.11-.8,1.74-.98.33-.09.76-.16,1.05-.16.15,0,.23-.03.28-.11.04-.06.04-.08.04-2.28V1.65s.07.01.07.01c.04,0,.14.04.23.07l.16.05v2.77c0,1.52,0,2.77-.01,2.77s-.12-.02-.24-.05c-.5-.11-.91-.15-1.45-.14-.66.02-1.17.11-1.77.32l-.23.08.14-.13h0ZM4.47,7.44c-.25-.09-.67-.2-.95-.24-.38-.06-.64-.08-1.11-.07-.46,0-.75.04-1.13.13-.11.02-.22.05-.24.05h-.05s0-2.77,0-2.77V1.77s.21-.06.21-.06c.11-.03.22-.06.23-.07.02,0,.02.45.02,2.22,0,2.42,0,2.29.1,2.36.04.02.11.03.32.05.85.05,1.65.33,2.31.82.14.1.48.39.5.42.01.02,0,.02-.21-.06h0Z"/>
        <path class="cls-1" d="M13.09,7.24V1.72h1.51v1.19l-.02,1.59.02.73v2.02h-1.51ZM14.23,6.32v-1.41c.11-.22.21-.41.32-.59.1-.18.22-.36.35-.55s.28-.4.46-.63l1.1-1.42h1.78l-2.31,2.84-.14-.04-1.55,1.8ZM16.57,7.24l-1.33-2.22.95-1.11,2.15,3.33h-1.77Z"/>
        <path class="cls-1" d="M19.97,7.43c-.44,0-.83-.09-1.15-.27-.32-.18-.57-.42-.74-.74-.17-.32-.26-.69-.26-1.11s.09-.79.26-1.11c.17-.32.42-.56.74-.74.32-.18.7-.27,1.15-.27s.83.09,1.15.27c.32.18.56.42.74.74s.26.69.26,1.11-.09.8-.26,1.11-.42.56-.74.74c-.32.18-.7.27-1.15.27ZM19.97,6.31c.13,0,.24-.04.33-.12.09-.08.17-.19.22-.34.05-.15.08-.33.08-.54s-.03-.4-.08-.54c-.05-.15-.12-.26-.22-.33-.09-.08-.2-.11-.33-.11s-.24.04-.34.11-.17.19-.22.33c-.05.15-.08.33-.08.54s.03.39.08.54c.05.15.12.26.22.34s.21.12.34.12Z"/>
        <path class="cls-1" d="M23.93,7.39c-.3,0-.58-.08-.83-.24-.25-.16-.45-.39-.6-.7-.15-.31-.22-.7-.22-1.17s.08-.88.23-1.19.35-.54.6-.69c.25-.15.51-.23.8-.23.2,0,.37.03.52.1.15.06.28.15.38.26.11.11.19.24.25.38h.02V1.8h1.49v5.53h-1.47v-.67h-.03c-.06.15-.14.27-.25.38-.1.11-.23.19-.38.25s-.32.09-.51.09ZM24.46,6.24c.14,0,.25-.04.35-.12.1-.08.18-.19.23-.33.06-.14.08-.31.08-.51s-.03-.37-.08-.52c-.06-.14-.13-.25-.23-.33s-.22-.12-.35-.12-.25.04-.35.12-.17.19-.22.33c-.05.14-.08.32-.08.52s.03.37.08.51c.05.14.13.26.22.33s.21.11.35.11Z"/>
        <path class="cls-1" d="M28.87,7.43c-.44,0-.83-.09-1.15-.27-.32-.18-.57-.42-.74-.74s-.26-.69-.26-1.11.09-.79.26-1.11.42-.56.74-.74c.32-.18.71-.27,1.15-.27s.83.09,1.15.27c.32.18.56.42.74.74s.26.69.26,1.11-.09.8-.26,1.11-.42.56-.74.74c-.32.18-.7.27-1.15.27ZM28.87,6.3c.13,0,.24-.04.33-.12.09-.08.17-.19.22-.34s.08-.33.08-.54-.03-.4-.08-.54-.12-.26-.22-.33c-.09-.08-.2-.11-.33-.11s-.24.04-.34.11-.17.19-.22.33c-.05.15-.08.33-.08.54s.03.39.08.54c.05.15.12.26.22.34s.21.12.34.12Z"/>
        <rect class="cls-1" x="18.86" y="2.06" width="2.23" height=".86"/>
      </g>
    </g>
  </g>
</svg>